<?xml version="1.0" encoding="utf-8"?>
<!-- Generator: Adobe Illustrator 27.2.0, SVG Export Plug-In . SVG Version: 6.00 Build 0)  -->
<svg version="1.1" id="Layer_2_00000129198817572340842810000007719255560049984425_"
	 xmlns="http://www.w3.org/2000/svg" xmlns:xlink="http://www.w3.org/1999/xlink" x="0px" y="0px" viewBox="0 0 512 512"
	 style="enable-background:new 0 0 512 512;" xml:space="preserve">
<path class="st0" d="M16.7,159.5c8.9-1.3,16.2-2.8,23.6-3.4c24.2-2,48.3-5.1,72.8,0.2c23.9,5.2,42.1,22.3,44.4,50.5
	c2.9,35.7-5.8,67.2-27.4,95.3c-19.6,25.4-47.9,33.9-78.6,25c-5-1.5-10.8-0.8-16.2-0.5c-8.2,0.5-16.4,1.5-24.6,2.2
	c-8.5,0.7-10.1-3.7-8.5-11.1c6.3-28.2,12.3-56.5,18.5-84.8c2.2-9.9,4.4-19.9,6.5-29.8c2.8-13.1,1.8-25.4-7.1-36.3
	C18.9,165.4,18.4,163.3,16.7,159.5z M112.8,202.1c-0.8-5.4-1.1-11.8-2.7-17.8c-3.2-12.1-16.1-19.5-28-15.6c-2.8,0.9-5.4,5.1-6.3,8.3
	c-1.9,6.6-2.2,13.6-3.7,20.4c-7.1,33.8-14.4,67.5-21.6,101.2c-2.2,10.4,0.3,13.5,10.9,13.2c11.1-0.3,19.3-6,25.6-14.8
	C107.1,268.8,109.3,235.7,112.8,202.1z"/>
<path class="st0" d="M510,221.1c-7,35.5-12.5,67.2-19.7,98.5c-4.3,18.7-12.3,36.3-26.8,50c-12.7,12-27.6,17.2-44.4,12.3
	c-5.9-1.7-13.1-6.4-15.5-11.6c-3.6-7.7-0.9-17.3,7-21.8c9.9-5.7,20.7-10,31.6-13.5c8.3-2.7,10.5-7.5,9.5-15.6
	c-9.5,2.8-18.4,6.2-27.6,7.9c-5.9,1.1-12.4,0.5-18.4-0.7c-9-1.8-13.8-8.4-12.7-17.4c2.4-18.5,5.7-37,8.5-55.5
	c0.7-4.5,1.7-9.3,1.2-13.7c-1.4-10.3,2.8-15.1,14.8-14.9c6.1,0.1,12.2-0.5,18.1-2c8.2-2.1,12.4,0.3,11.3,7.3
	c-2.8,17.8-5.9,35.6-8.8,53.4c-0.6,3.9-0.8,7.9-1.1,11.8c-0.5,6,2.2,9.9,8.2,9.9c5.7,0,10.6-1.3,11.4-9.2c2.1-19.6,5.2-39.2,8-58.7
	c0.9-6.2,3-11.1,10.8-11.8C485.9,225,496.4,223,510,221.1z M446.6,347.9l-0.5-0.7c-0.5-0.8-1.9-1.2-2.8-0.8
	c-6.7,2.3-13.3,4.2-19.4,7.6c-2.4,1.3-5.2,4.9-3.7,9c0.2,0.7,0.4,0.9,0.7,1.3c2.9,2.5,7.7,3.3,9.7,1.8c5.8-4.1,12.8-6.7,17.8-12
	C449.4,353.2,447.2,348.8,446.6,347.9z"/>
<path class="st0" d="M269.1,152.5c10.1-1.5,22.6-3.7,35.3-5.2c7.1-0.8,8.1,5,7.4,10.1c-3,20.1-6,40.2-9.8,60.2
	c-4.8,25.5-10.3,50.8-15.4,76.3c-2.3,11.6,0.2,13.7,12.5,12.5c2.2-0.2,5.7,2.3,6.9,4.5c0.8,1.5-0.7,5.8-2.4,6.8
	c-12.3,7.3-24.9,13.5-39.9,12.7c-14.8-0.8-24.1-12.3-21.1-27c6.6-32.1,14-64.1,20.1-96.4C265.8,190.2,266.8,172.8,269.1,152.5z"/>
<path class="st0" d="M361.3,308.6c6.6-1.2,11.4-2,16.1-2.8c6.1,5.7,4.8,11.4-2.1,13.8c-12.6,4.4-25.5,8.9-38.6,10.4
	c-12,1.4-20-7.5-19.5-19.7c0.5-12.1,2.5-24.2,4.8-36.1c5.9-30.3,12.6-60.4,18.5-90.7c1.4-7,1.1-14.5,0.6-21.8c-0.5-6.4,2.3-9.1,8-10
	c9.4-1.5,18.8-3,28.3-4.3c6.1-0.9,8.7,2.4,7.9,8.2c-2.1,16.9-3.8,34-6.8,50.8c-5.2,29.1-11.5,58.1-17,87.1
	C360.6,297.7,361.3,302.4,361.3,308.6z"/>
<path class="st0" d="M174.9,223.8c14.9-1,30-3.8,44.7-2.3c8.6,0.9,7.6,11.9,6.3,19.2c-2.2,12.6-5.8,24.9-8.4,37.5
	c-1.5,7.4-2.3,14.9-2.9,22.4c-0.4,5.4,2.2,7.5,8,6.6c2.5-0.4,5.5,2,8.2,3.2c-1.4,2.8-2.1,7.3-4.2,8.1c-12.2,4.5-24.5,9.6-37.2,11.5
	c-12.2,1.8-19.3-5.8-19-18.2c0.3-10.7,1.9-21.6,4.3-32.1c4-17.8,12.1-35.3-1.6-52.9C173.7,225.8,174.3,224.8,174.9,223.8z"/>
<path class="st0" d="M77,87.1c91.3-97.8,259.5-101.7,356.4,0.1c-8.9,2.2-15.8,0.3-22.7-5.7c-50.5-44.3-109.9-64-176.4-58.5
	c-50.3,4.1-95.2,23.6-133.4,57.1C93.8,86.4,86.7,90.1,77,87.1z"/>
<path class="st0" d="M433.3,425c-96.3,101.3-264,98.4-356.4-0.2c8.4-1.8,15.3-0.7,21.9,5.3c38,34.4,83.1,54.2,133.6,58.8
	c65.7,6.1,124.7-12.9,175.4-55.7C415.2,427,422.2,421.7,433.3,425z"/>
<path class="st0" d="M186.3,179.9c-0.1-12.5,9.6-20.8,24.6-20.9c14-0.2,22.9,6.3,23.4,17c0.5,11.4-12.2,23.2-25.1,23.2
	C196.1,199.2,186.4,191.1,186.3,179.9z"/>
</svg>
