<?xml version="1.0" encoding="utf-8"?>
<!-- Generator: Adobe Illustrator 27.2.0, SVG Export Plug-In . SVG Version: 6.00 Build 0)  -->
<svg version="1.1" id="Layer_1" xmlns="http://www.w3.org/2000/svg" xmlns:xlink="http://www.w3.org/1999/xlink" x="0px" y="0px"
	 viewBox="0 0 264.1 269.2" style="enable-background:new 0 0 264.1 269.2;" xml:space="preserve">
<g>
	<path class="st0" d="M241.5,74c-11.3-19.3-26.6-34.6-45.9-45.9c-19.3-11.3-40.4-16.9-63.3-16.9c-22.9,0-44,5.6-63.3,16.9
		C49.7,39.4,34.4,54.7,23.2,74C11.9,93.3,6.2,114.4,6.2,137.3c0,27.5,8,52.2,24,74.1c16,21.9,36.7,37.1,62.1,45.6
		c3,0.6,5.1,0.2,6.6-1.1c1.4-1.3,2.1-3,2.1-4.9c0-0.3,0-3.3-0.1-8.9c-0.1-5.6-0.1-10.4-0.1-14.6l-3.8,0.7c-2.4,0.4-5.5,0.6-9.1,0.6
		c-3.7-0.1-7.5-0.4-11.4-1.2c-3.9-0.7-7.6-2.3-11-4.9c-3.4-2.6-5.8-5.9-7.2-10.1l-1.6-3.8c-1.1-2.5-2.8-5.3-5.2-8.4
		c-2.1-2.7-4.3-4.7-6.4-5.9c-0.6-0.3-1.1-0.7-1.7-1l-0.2-0.2c-0.8-0.6-1.5-1.2-2.1-2c-0.7-0.8-1.2-1.5-1.5-2.3
		c-0.3-0.8-0.1-1.4,0.8-1.9c0.5-0.3,1.2-0.5,2.2-0.6c1.3-0.2,2.7-0.1,4,0.1l1.9,0.3c2.2,0.4,4.9,1.8,8.1,3.9c3.2,2.2,5.9,5,8,8.5
		c2.5,4.5,5.5,7.9,9.1,10.3c3.6,2.4,7.1,3.5,10.8,3.5c3.6,0,6.7-0.3,9.4-0.8c2.6-0.6,5.1-1.4,7.4-2.5c1-7.3,3.7-13,8-16.9
		c-6.2-0.7-11.8-1.6-16.8-3c-5-1.3-10.1-3.4-15.4-6.4c-5.3-2.9-9.7-6.6-13.2-11c-3.5-4.4-6.4-10.1-8.6-17.2
		c-2.2-7.1-3.4-15.3-3.4-24.6c0-13.2,4.3-24.5,13-33.8c-4.1-10-3.7-21.1,1.2-33.5c3.2-1,7.9-0.2,14.1,2.2c6.2,2.5,10.8,4.6,13.7,6.3
		c2.9,1.8,5.2,3.2,7,4.4c10.2-2.8,20.7-4.3,31.5-4.3c10.8,0,21.3,1.4,31.5,4.3l6.2-3.9c4.3-2.6,9.3-5,15.1-7.2
		c5.8-2.2,10.2-2.8,13.3-1.8c4.9,12.4,5.4,23.5,1.3,33.5c8.6,9.3,13,20.6,13,33.8c0,9.3-1.1,17.5-3.4,24.7
		c-2.2,7.2-5.1,12.9-8.7,17.2c-3.6,4.3-8,8-13.3,10.9c-5.3,3-10.4,5.1-15.4,6.4c-5,1.3-10.6,2.3-16.8,3c5.7,4.9,8.5,12.7,8.5,23.3
		v34.6c0,2,0.7,3.6,2.1,4.9c1.4,1.3,3.5,1.7,6.5,1.2c25.4-8.4,46.1-23.6,62.1-45.6c16-21.9,24.1-46.6,24.1-74.1
		C258.4,114.4,252.7,93.3,241.5,74z"/>
	<path class="st0" d="M94.8,257.7c-0.8,0-1.6-0.1-2.5-0.3l-0.1,0c-25.4-8.4-46.4-23.8-62.4-45.7c-16-21.9-24.1-47-24.1-74.4
		c0-22.9,5.7-44.2,17-63.6C34,54.4,49.5,38.9,68.8,27.6c19.3-11.3,40.7-17,63.6-17c22.9,0,44.2,5.7,63.6,17
		c19.3,11.3,34.8,26.8,46.1,46.1l0,0c11.3,19.3,17,40.7,17,63.6c0,27.5-8.1,52.5-24.2,74.4c-16,21.9-37,37.3-62.4,45.8l-0.1,0
		c-3.1,0.6-5.5,0.1-7-1.3c-1.5-1.4-2.2-3.2-2.2-5.3v-34.6c0-10.4-2.8-18.1-8.3-22.9l-0.9-0.8l1.2-0.1c6.2-0.7,11.8-1.6,16.7-2.9
		c4.9-1.3,10.1-3.4,15.3-6.3c5.2-2.9,9.7-6.5,13.1-10.8c3.5-4.2,6.4-10,8.6-17.1c2.2-7.1,3.3-15.3,3.3-24.5c0-13-4.3-24.3-12.8-33.4
		l-0.2-0.3l0.1-0.3c3.9-9.7,3.5-20.8-1.2-32.8c-2.9-0.8-7.2-0.2-12.7,1.9c-5.8,2.2-10.8,4.6-15,7.2l-6.4,4.1l-0.2-0.1
		c-10.1-2.8-20.7-4.2-31.4-4.2c-10.7,0-21.3,1.4-31.4,4.2l-0.2,0.1l-0.2-0.1c-1.8-1.3-4.2-2.7-6.9-4.4c-2.9-1.8-7.5-3.9-13.6-6.3
		C74,63.8,69.4,63,66.4,63.8c-4.7,12.1-5,23.1-1.1,32.8l0.1,0.3l-0.2,0.3c-8.5,9.2-12.8,20.4-12.8,33.5c0,9.2,1.1,17.4,3.3,24.5
		c2.2,7,5.1,12.7,8.5,17.1c3.5,4.3,7.8,8,13.1,10.9c5.2,2.9,10.4,5.1,15.3,6.4c4.9,1.3,10.5,2.3,16.7,2.9l1.2,0.1l-0.9,0.8
		c-4.3,3.8-6.9,9.4-7.9,16.6l0,0.3l-0.3,0.1c-2.3,1.1-4.8,1.9-7.5,2.5c-2.7,0.5-5.9,0.8-9.5,0.8c-3.7,0-7.4-1.2-11.1-3.6
		c-3.6-2.4-6.7-5.9-9.3-10.4c-2-3.4-4.6-6.2-7.8-8.4c-3.2-2.1-5.8-3.4-7.9-3.9l-1.8-0.3c-1.3-0.2-2.6-0.2-3.8-0.1
		c-0.9,0.1-1.6,0.3-2,0.5c-0.8,0.5-0.7,0.9-0.6,1.2c0.3,0.7,0.8,1.4,1.4,2.1c0.6,0.7,1.3,1.4,2,1.9l0.2,0.1c0.5,0.3,1,0.7,1.6,1
		c2.2,1.2,4.4,3.2,6.6,6c2.4,3.1,4.1,5.9,5.2,8.5l1.7,3.8c1.4,4,3.8,7.4,7,9.8c3.3,2.5,6.9,4.1,10.8,4.8c3.9,0.7,7.7,1.1,11.3,1.1
		c3.6,0.1,6.7-0.1,9-0.6l4.4-0.8v0.6c0,4.1,0,9,0.1,14.6c0,2.9,0,5.1,0.1,6.6c0,1.3,0,2.1,0,2.3c0,2.1-0.8,3.9-2.3,5.3
		C98.3,257.2,96.7,257.7,94.8,257.7z M92.6,256.4c2.7,0.5,4.8,0.2,6.1-1c1.3-1.2,2-2.7,2-4.5c0-0.2,0-0.9,0-2.2c0-1.5,0-3.7-0.1-6.6
		c-0.1-5.3-0.1-10-0.1-14l-3.1,0.5c-2.4,0.4-5.5,0.6-9.2,0.6c-3.7-0.1-7.6-0.4-11.5-1.2c-4-0.7-7.8-2.4-11.2-5
		c-3.5-2.6-5.9-6.1-7.4-10.3l-1.6-3.8c-1.1-2.4-2.8-5.2-5.1-8.3c-2.1-2.7-4.2-4.6-6.2-5.7c-0.6-0.3-1.2-0.7-1.7-1.1l-0.2-0.2
		c-0.8-0.6-1.5-1.3-2.2-2.1c-0.7-0.8-1.2-1.6-1.6-2.4c-0.3-0.6-0.5-1.7,1-2.6c0.6-0.3,1.3-0.5,2.4-0.7c1.3-0.2,2.7-0.1,4.1,0.1
		l1.9,0.3c2.3,0.4,5.1,1.8,8.4,4c3.3,2.2,6,5.2,8.1,8.7c2.5,4.4,5.5,7.8,8.9,10.1c3.4,2.3,7,3.4,10.5,3.4c3.5,0,6.6-0.3,9.2-0.8
		c2.5-0.5,4.8-1.3,7-2.3c1-6.8,3.4-12.2,7.3-16.1c-5.8-0.7-11.1-1.6-15.7-2.8c-5-1.3-10.2-3.5-15.6-6.5c-5.3-3-9.8-6.7-13.4-11.1
		c-3.5-4.4-6.5-10.3-8.7-17.4c-2.2-7.1-3.4-15.5-3.4-24.8c0-13.2,4.3-24.6,12.9-33.9c-4-10-3.5-21.3,1.3-33.6l0.1-0.2l0.2-0.1
		c3.3-1,8-0.3,14.5,2.2c6.2,2.4,10.8,4.6,13.8,6.4c2.7,1.6,5,3.1,6.8,4.3c10.1-2.8,20.7-4.2,31.4-4.2c10.7,0,21.3,1.4,31.4,4.2
		l6-3.8c4.2-2.6,9.4-5.1,15.2-7.3c5.9-2.2,10.5-2.8,13.7-1.8l0.2,0.1l0.1,0.2c4.9,12.3,5.4,23.6,1.4,33.6
		c8.5,9.3,12.9,20.7,12.9,33.9c0,9.3-1.1,17.7-3.4,24.9c-2.3,7.2-5.2,13.1-8.8,17.4c-3.6,4.4-8.1,8.1-13.5,11
		c-5.3,3-10.6,5.1-15.6,6.4c-4.6,1.2-9.9,2.2-15.7,2.8c5.2,5,7.8,12.7,7.8,22.9v34.6c0,1.8,0.6,3.3,1.9,4.5c1.2,1.2,3.2,1.5,6,1
		c25.2-8.4,46-23.6,61.8-45.4c15.9-21.7,24-46.6,24-73.8c0-22.7-5.7-43.9-16.8-63l0,0c-11.2-19.1-26.5-34.5-45.7-45.7
		c-19.1-11.2-40.3-16.8-63-16.8c-22.7,0-43.9,5.7-63,16.8C50.2,39.7,34.8,55.1,23.6,74.2c-11.2,19.1-16.8,40.3-16.8,63
		c0,27.2,8.1,52,23.9,73.8C46.6,232.8,67.4,248,92.6,256.4z"/>
</g>
</svg>
