<?xml version="1.0" encoding="utf-8"?>
<!-- Generator: Adobe Illustrator 27.2.0, SVG Export Plug-In . SVG Version: 6.00 Build 0)  -->
<svg version="1.1" id="_x2018_ëîé_x5F_1" xmlns="http://www.w3.org/2000/svg" xmlns:xlink="http://www.w3.org/1999/xlink"
	 x="0px" y="0px" viewBox="0 0 262.2 244.3" style="enable-background:new 0 0 262.2 244.3;" xml:space="preserve">
<path class="st0" d="M253.5,128.4l-47-47.5v-58c0-1.7-1.4-3.1-3.1-3.1h-22.6c-1.7,0-3.1,1.4-3.1,3.1v28.9L135.7,9.5
	c-2.3-2.3-6-2.3-8.3,0L8.5,128.4c-3.4,3.4-3.4,8.9,0,12.3c2.4,2.4,5.9,3.1,8.9,2.1l0,0l24.8-8.5v93.8c0,4,3.2,7.2,7.2,7.2h46.8
	c4,0,7.2-3.2,7.2-7.2V157h56.6v71.2c0,4,3.2,7.2,7.2,7.2h46.8c4,0,7.2-3.2,7.2-7.2v-93.4l23.2,7.9c3.1,1.2,6.8,0.6,9.3-1.9
	C256.8,137.3,256.9,131.8,253.5,128.4z"/>
</svg>
