<?xml version="1.0" encoding="utf-8"?>
<!-- Generator: Adobe Illustrator 27.2.0, SVG Export Plug-In . SVG Version: 6.00 Build 0)  -->
<svg version="1.1" id="Layer_1" xmlns="http://www.w3.org/2000/svg" xmlns:xlink="http://www.w3.org/1999/xlink" x="0px" y="0px"
	 viewBox="0 0 410 154" style="enable-background:new 0 0 410 154;" xml:space="preserve">
<style type="text/css">
	.st0{fill:#1A1A1A;}
</style>
<path id="previous" class="st0" d="M379.9,10.1H29.4c-14.1,0-25.6,11.5-25.6,25.6v82.7c0,14.1,11.5,25.6,25.6,25.6h350.5
	c14.1,0,25.6-11.5,25.6-25.6V35.7C405.5,21.6,394,10.1,379.9,10.1z M398.3,118.4c0,10.1-8.3,18.4-18.4,18.4H29.4
	c-10.1,0-18.4-8.3-18.4-18.4V35.7c0-10.1,8.3-18.4,18.4-18.4h350.5c10.1,0,18.4,8.3,18.4,18.4V118.4z M97.2,44.3
	c-1.6-1.2-3.8-1-5.1,0.6L68.8,74.5c0,0,0,0.1-0.1,0.1c0,0.1-0.1,0.1-0.1,0.2c0,0-0.1,0.1-0.1,0.1c0,0.1-0.1,0.1-0.1,0.2
	c0,0,0,0.1-0.1,0.2c0,0.1,0,0.1-0.1,0.2c0,0.1,0,0.1-0.1,0.2c0,0,0,0.1,0,0.1c0,0.1,0,0.1-0.1,0.2c0,0,0,0.1,0,0.1
	c0,0.1,0,0.1,0,0.2c0,0.1,0,0.1,0,0.2c0,0.1,0,0.1,0,0.2c0,0.1,0,0.1,0,0.2c0,0.1,0,0.1,0,0.2c0,0.1,0,0.1,0,0.2c0,0.1,0,0.1,0,0.2
	c0,0.1,0,0.1,0,0.2c0,0,0,0.1,0,0.1c0,0.1,0,0.1,0.1,0.2c0,0,0,0.1,0,0.1c0,0.1,0,0.1,0.1,0.2c0,0.1,0,0.1,0.1,0.2
	c0,0.1,0,0.1,0.1,0.2c0,0.1,0.1,0.1,0.1,0.2c0,0,0,0.1,0.1,0.1c0,0.1,0.1,0.1,0.1,0.2c0,0,0,0.1,0.1,0.1l23.4,29.6
	c0.7,0.9,1.8,1.4,2.8,1.4c0.8,0,1.6-0.3,2.2-0.8c1.6-1.2,1.8-3.5,0.6-5.1L76.2,76.7l21.6-27.4C99.1,47.8,98.8,45.5,97.2,44.3z
	 M159.8,71.2h-0.2v-3.8h-6v28.6h6.1V79.1c0-3.8,1.6-6.8,6.4-6.8c1,0,2.1,0.1,2.6,0.2v-5.3c-0.6-0.1-1.2-0.2-2-0.2
	C162.7,67.1,160.6,69.4,159.8,71.2z M135.9,59.1h-14.2v36.9h6.1V83h8c7.5,0,12.2-4.9,12.2-11.9C148.1,64.2,143.5,59.1,135.9,59.1z
	 M132.8,77.9h-4.9V64.2h7.1c4.3,0,6.8,2.5,6.8,6.8C141.8,76.6,138.5,77.9,132.8,77.9z M184.5,67c-7.5,0-12.3,5.2-12.3,13.2V83
	c0,8.5,4.9,13.5,12.5,13.5c7.1,0,10.8-4.1,11.7-8.7h-5.7c-0.7,2.5-2.8,4-5.9,4c-4.1,0-6.7-3.2-6.7-8v-0.7h18.6v-2.7
	C196.8,72.3,192.2,67,184.5,67z M190.9,78.9h-12.7v-0.1c0-4.1,2.5-7.3,6.4-7.3C188.4,71.6,190.9,74.8,190.9,78.9L190.9,78.9z
	 M255.5,67c-8.2,0-12.7,5.8-12.7,13.6v2.3c0,8.1,4.5,13.7,12.7,13.7c8.3,0,12.7-5.6,12.7-13.7v-2.3C268.2,72.8,263.7,67,255.5,67z
	 M262.2,82.8c0,5.1-2.2,8.9-6.7,8.9c-4.5,0-6.7-3.8-6.7-8.9v-2.2c0-5.2,2.2-8.9,6.7-8.9c4.5,0,6.7,3.6,6.7,8.9V82.8z M318.2,79.4
	c-3.2-0.6-7.2-1.2-7.2-4.2c0-2.4,2.1-3.8,5.1-3.8c3.9,0,5.1,2.2,5.3,4.2h5.4c0-5.1-3.8-8.7-10.6-8.7c-5.8,0-11.1,2.7-11.1,8.9
	c0,5.2,4.2,7,9.5,8.1c3.8,0.8,7.1,1.2,7.1,4.2c0,2.1-1.8,3.9-5.6,3.9c-3.4,0-5.4-1.6-5.7-3.9h-5.8c0,5.1,4.3,8.4,11.2,8.4
	c7.2,0,11.8-3.4,11.8-9.1C327.7,82,323.5,80.3,318.2,79.4z M292.7,84.8c0,4.2-2.7,6.6-6.3,6.6c-3.2,0-6.1-1.5-6.1-6.5V67.5h-6v19
	c0,6.6,4.1,10,9.9,10c4.7,0,7.3-2.2,8.3-4.4h0.3v4h5.9V67.5h-6V84.8z M233,57.1c-1.9,0-3.6,1.4-3.6,3.4c0,2,1.6,3.4,3.6,3.4
	c1.9,0,3.5-1.4,3.5-3.4C236.6,58.5,235,57.1,233,57.1z M230,96.1h6V67.5h-6V96.1z M212.6,89.7h-0.2l-6.6-22.2h-6.4l9.7,28.6h6.7
	l10.1-28.6h-6.1L212.6,89.7z"/>
</svg>
