<?xml version="1.0" encoding="utf-8"?>
<!-- Generator: Adobe Illustrator 27.2.0, SVG Export Plug-In . SVG Version: 6.00 Build 0)  -->
<svg version="1.1" id="Layer_1" xmlns="http://www.w3.org/2000/svg" xmlns:xlink="http://www.w3.org/1999/xlink" x="0px" y="0px"
	 viewBox="0 0 286.8 128.5" style="enable-background:new 0 0 286.8 128.5;" xml:space="preserve">
<style type="text/css">
	.st0{fill:#1A1A1A;}
</style>
<path id="next" class="st0" d="M92.5,71.7h-0.2L77,48.3h-4.8v32.6h5.1V57.5h0.2l15.4,23.5h4.7V48.3h-5V71.7z M114.4,55.3
	c-6.6,0-10.8,4.6-10.8,11.6v2.5c0,7.5,4.3,11.9,11.1,11.9c6.2,0,9.5-3.6,10.3-7.7h-5c-0.7,2.2-2.4,3.5-5.2,3.5
	c-3.6,0-5.9-2.9-5.9-7.1v-0.5h16.4v-2.4C125.2,60,121.1,55.3,114.4,55.3z M120,65.8h-11.2v-0.1c0-3.6,2.2-6.4,5.6-6.4
	C117.8,59.3,120,62.2,120,65.8L120,65.8z M151.2,55.7h-5.9l-5.5,9h-0.1l-5.5-9h-6.2l8.2,12.6l-8.3,12.6h5.8l5.7-9h0.1l5.7,9h6
	l-8.4-12.6L151.2,55.7z M163.1,73.4V59.9h4.9v-4.2h-4.9v-6.1h-5.2v6.1h-3.6v4.2h3.5v13.8c0,5,1.7,7.2,7.8,7.2c1.1,0,2-0.1,2.5-0.2
	v-4.1c-0.3,0.1-0.7,0.1-1.2,0.1C164.2,76.9,163.1,76.1,163.1,73.4z M260.7,6H26.5C14.1,6,3.9,16.1,3.9,28.6v72.9
	C3.9,113.9,14,124,26.5,124h234.2c12.5,0,22.6-10.1,22.6-22.6V28.6C283.2,16.1,273.1,6,260.7,6z M276.9,101.4
	c0,9-7.2,16.2-16.2,16.2H26.5c-9,0-16.2-7.2-16.2-16.2V28.6c0-9,7.2-16.2,16.2-16.2h234.2c9,0,16.2,7.2,16.2,16.2V101.4z
	 M217.9,64.6c0-0.1,0-0.1,0-0.2s0-0.1,0-0.2c0-0.1,0-0.1,0-0.2s0-0.1-0.1-0.2c0-0.1,0-0.1-0.1-0.2c0-0.1,0-0.1-0.1-0.2
	c0-0.1-0.1-0.1-0.1-0.2c0-0.1-0.1-0.1-0.1-0.2c0-0.1-0.1-0.1-0.1-0.2l-0.1-0.1c0-0.1-0.1-0.1-0.1-0.2c0,0,0-0.1-0.1-0.1l-20.5-25.9
	c-0.7-0.8-1.5-1.2-2.5-1.2c-0.7,0-1.4,0.2-2,0.7c-1.4,1.1-1.6,3.1-0.5,4.5L210.7,65l-19.1,24.1c-1.1,1.4-0.8,3.3,0.5,4.5
	c1.4,1.1,3.3,0.8,4.5-0.5l20.6-26.1c0,0,0-0.1,0.1-0.1c0-0.1,0.1-0.1,0.1-0.2l0.1-0.1c0-0.1,0.1-0.1,0.1-0.2s0.1-0.1,0.1-0.2
	c0-0.1,0.1-0.1,0.1-0.2s0-0.1,0.1-0.2c0-0.1,0-0.1,0.1-0.2c0-0.1,0-0.1,0.1-0.2c0-0.1,0-0.1,0-0.2s0-0.1,0-0.2c0-0.1,0-0.1,0-0.2
	s0-0.1,0-0.2c0-0.1,0-0.1,0-0.2S217.9,64.7,217.9,64.6C217.9,64.8,217.9,64.7,217.9,64.6z"/>
</svg>
